<svg width="100" height="50" viewBox="0 0 278 129" fill="none" xmlns="http://www.w3.org/2000/svg">
<path d="M265.434 103.3V103.477C264.87 104.064 264.494 105.017 264.305 106.333C264.141 107.65 264.059 109.154 264.059 110.847V122.591H268.432C269.207 122.591 269.936 122.591 270.618 122.591C271.323 122.567 271.982 122.509 272.593 122.415C273.228 122.297 273.816 122.121 274.356 121.886C274.921 121.651 275.461 121.321 275.979 120.898L276.155 120.933L274.85 128.445L274.674 128.516C274.392 128.398 274.027 128.304 273.58 128.234C273.134 128.163 272.628 128.104 272.064 128.057C271.5 128.034 270.888 128.01 270.23 127.987C269.595 127.987 268.937 127.987 268.255 127.987H256.335V127.81C256.899 127.223 257.264 126.27 257.428 124.954C257.617 123.637 257.711 122.133 257.711 120.44V110.847C257.711 109.154 257.617 107.65 257.428 106.333C257.264 105.017 256.899 104.064 256.335 103.477V103.3H265.434Z" fill="black"/>
<path d="M233.089 127.987V127.811C233.653 127.223 234.018 126.271 234.182 124.954C234.37 123.637 234.464 122.133 234.464 120.44V110.847C234.464 109.155 234.37 107.65 234.182 106.333C234.018 105.017 233.653 104.065 233.089 103.477V103.3H244.797C245.55 103.3 246.29 103.3 247.019 103.3C247.771 103.3 248.465 103.289 249.1 103.265C249.758 103.218 250.334 103.159 250.828 103.089C251.345 103.018 251.757 102.913 252.062 102.771L252.239 102.842L253.508 110.354L253.332 110.389C252.815 109.966 252.274 109.648 251.71 109.437C251.169 109.202 250.581 109.037 249.946 108.943C249.335 108.826 248.688 108.755 248.007 108.732C247.325 108.708 246.596 108.696 245.82 108.696H240.812V113.281H244.833C245.985 113.281 247.031 113.222 247.971 113.105C248.912 112.987 249.641 112.705 250.158 112.258L250.334 112.329V119.488L250.158 119.558C249.641 119.112 249.112 118.771 248.571 118.536C248.03 118.3 247.454 118.136 246.843 118.042C246.255 117.924 245.62 117.854 244.938 117.83C244.28 117.807 243.563 117.795 242.787 117.795H240.812V122.591H246.349C247.125 122.591 247.854 122.591 248.536 122.591C249.217 122.568 249.864 122.509 250.475 122.415C251.11 122.297 251.698 122.121 252.239 121.886C252.803 121.651 253.344 121.322 253.861 120.898L254.037 120.934L252.768 128.445L252.591 128.516C252.286 128.375 251.874 128.269 251.357 128.199C250.863 128.128 250.287 128.069 249.629 128.022C248.994 127.999 248.3 127.987 247.548 127.987C246.819 127.987 246.079 127.987 245.326 127.987H233.089Z" fill="black"/>
<path d="M209.841 127.987V127.811C210.405 127.223 210.77 126.271 210.934 124.954C211.122 123.637 211.216 122.133 211.216 120.44V110.847C211.216 109.155 211.122 107.65 210.934 106.333C210.77 105.017 210.405 104.065 209.841 103.477V103.3H221.55C222.302 103.3 223.042 103.3 223.771 103.3C224.524 103.3 225.217 103.289 225.852 103.265C226.51 103.218 227.086 103.159 227.58 103.089C228.097 103.018 228.509 102.913 228.814 102.771L228.991 102.842L230.26 110.354L230.084 110.389C229.567 109.966 229.026 109.648 228.462 109.437C227.921 109.202 227.333 109.037 226.698 108.943C226.087 108.826 225.441 108.755 224.759 108.732C224.077 108.708 223.348 108.696 222.572 108.696H217.564V113.281H221.585C222.737 113.281 223.783 113.222 224.724 113.105C225.664 112.987 226.393 112.705 226.91 112.258L227.086 112.329V119.488L226.91 119.558C226.393 119.112 225.864 118.771 225.323 118.536C224.782 118.3 224.206 118.136 223.595 118.042C223.007 117.924 222.372 117.854 221.691 117.83C221.032 117.807 220.315 117.795 219.539 117.795H217.564V122.591H223.101C223.877 122.591 224.606 122.591 225.288 122.591C225.97 122.568 226.616 122.509 227.227 122.415C227.862 122.297 228.45 122.121 228.991 121.886C229.555 121.651 230.096 121.322 230.613 120.898L230.789 120.934L229.52 128.445L229.343 128.516C229.038 128.375 228.626 128.269 228.109 128.199C227.615 128.128 227.039 128.069 226.381 128.022C225.746 127.999 225.053 127.987 224.3 127.987C223.571 127.987 222.831 127.987 222.079 127.987H209.841Z" fill="black"/>
<path d="M194.836 103.3C196.858 103.3 198.598 103.512 200.055 103.935C201.536 104.358 202.747 104.946 203.688 105.698C204.628 106.451 205.322 107.356 205.768 108.414C206.215 109.448 206.439 110.577 206.439 111.799C206.439 113.774 206.015 115.361 205.169 116.56C204.346 117.759 203.265 118.688 201.924 119.346L202.312 119.981C202.83 120.804 203.335 121.604 203.829 122.379C204.346 123.132 204.852 123.825 205.345 124.46C205.839 125.071 206.333 125.589 206.826 126.012C207.32 126.435 207.814 126.694 208.308 126.788V126.964C207.767 127.434 207.132 127.787 206.403 128.022C205.674 128.257 204.934 128.375 204.181 128.375C203.359 128.375 202.606 128.304 201.924 128.163C201.266 128.022 200.643 127.787 200.055 127.458C199.468 127.105 198.915 126.647 198.398 126.082C197.881 125.518 197.363 124.813 196.846 123.966L194.977 121.004C194.436 121.051 193.907 121.086 193.39 121.11C192.873 121.133 192.344 121.157 191.803 121.18C191.826 122.709 191.92 124.06 192.085 125.236C192.273 126.412 192.638 127.27 193.178 127.81V127.987H184.08V127.81C184.644 127.223 185.008 126.27 185.173 124.954C185.361 123.637 185.455 122.133 185.455 120.44V110.847C185.455 109.154 185.361 107.65 185.173 106.333C185.008 105.017 184.644 104.064 184.08 103.477V103.3H194.836ZM191.803 116.56C192.767 116.537 193.731 116.466 194.695 116.349C195.659 116.208 196.517 115.973 197.269 115.643C198.045 115.314 198.668 114.868 199.138 114.303C199.609 113.739 199.844 112.999 199.844 112.082C199.844 110.906 199.362 110.024 198.398 109.437C197.434 108.825 196.07 108.52 194.307 108.52H191.803V116.56Z" fill="black"/>
<path d="M160.121 103.3C162.049 103.3 163.801 103.559 165.376 104.076C166.975 104.593 168.35 105.369 169.502 106.404C170.654 107.415 171.548 108.696 172.182 110.248C172.817 111.799 173.135 113.598 173.135 115.643C173.135 117.689 172.817 119.488 172.182 121.039C171.548 122.591 170.654 123.884 169.502 124.919C168.35 125.93 166.975 126.694 165.376 127.211C163.801 127.728 162.049 127.987 160.121 127.987H149.436V127.81C150 127.223 150.364 126.27 150.529 124.954C150.717 123.637 150.811 122.133 150.811 120.44V110.847C150.811 109.154 150.717 107.65 150.529 106.333C150.364 105.017 150 104.064 149.436 103.477V103.3H160.121ZM159.557 122.767C161.744 122.767 163.46 122.168 164.706 120.969C165.952 119.746 166.575 117.971 166.575 115.643C166.575 113.316 165.952 111.553 164.706 110.354C163.46 109.131 161.744 108.52 159.557 108.52C159.204 108.52 158.793 108.531 158.323 108.555C157.852 108.555 157.465 108.578 157.159 108.625V122.662C157.488 122.709 157.876 122.744 158.323 122.767C158.793 122.767 159.204 122.767 159.557 122.767Z" fill="black"/>
<path d="M130.832 103.3V103.477C130.808 103.547 130.797 103.665 130.797 103.829C130.797 104.088 130.867 104.382 131.008 104.711C131.149 105.04 131.314 105.357 131.502 105.663C131.69 105.969 131.878 106.263 132.066 106.545C132.254 106.803 132.407 107.015 132.525 107.18L139.261 116.772V110.847C139.261 109.154 139.166 107.65 138.978 106.333C138.814 105.017 138.449 104.064 137.885 103.477V103.3H146.984V103.477C146.42 104.064 146.043 105.017 145.855 106.333C145.691 107.65 145.608 109.154 145.608 110.847V120.44C145.608 122.133 145.691 123.637 145.855 124.954C146.043 126.27 146.42 127.223 146.984 127.81V127.987H138.485V127.81C138.508 127.74 138.52 127.622 138.52 127.458C138.52 127.199 138.449 126.905 138.308 126.576C138.167 126.247 138.003 125.93 137.815 125.624C137.627 125.318 137.427 125.036 137.215 124.777C137.027 124.495 136.886 124.272 136.792 124.107L130.021 114.444V120.44C130.021 122.133 130.103 123.637 130.268 124.954C130.456 126.27 130.832 127.223 131.396 127.81V127.987H122.297V127.81C122.862 127.223 123.226 126.27 123.391 124.954C123.579 123.637 123.673 122.133 123.673 120.44V110.847C123.673 109.154 123.579 107.65 123.391 106.333C123.226 105.017 122.862 104.064 122.297 103.477V103.3H130.832Z" fill="black"/>
<path d="M106.86 111.941L104.11 118.994L109.4 118.324L106.86 111.941ZM102.17 123.825C101.982 124.366 101.841 124.825 101.747 125.201C101.676 125.577 101.641 125.918 101.641 126.223C101.641 126.647 101.688 126.988 101.782 127.246C101.9 127.481 102.017 127.669 102.135 127.81V127.987H92.8596V127.81C93.612 126.988 94.2703 125.977 94.8345 124.777C95.4223 123.578 95.916 122.45 96.3157 121.392L102.029 106.933C102.264 106.321 102.405 105.875 102.452 105.593C102.523 105.287 102.558 105.087 102.558 104.993C102.558 104.593 102.499 104.276 102.382 104.041C102.288 103.806 102.182 103.618 102.064 103.477V103.3H110.317L117.44 121.392C117.84 122.45 118.322 123.578 118.886 124.777C119.474 125.977 120.144 126.988 120.896 127.81V127.987H111.621V127.81C111.739 127.669 111.845 127.481 111.939 127.246C112.056 126.988 112.115 126.647 112.115 126.223C112.115 125.918 112.068 125.577 111.974 125.201C111.903 124.801 111.762 124.343 111.551 123.825L111.092 122.662L102.205 123.755L102.17 123.825Z" fill="black"/>
<path d="M62.1982 127.987V127.811C62.7625 127.223 63.1269 126.271 63.2915 124.954C63.4796 123.637 63.5736 122.133 63.5736 120.44V110.847C63.5736 109.155 63.4796 107.65 63.2915 106.333C63.1269 105.017 62.7625 104.065 62.1982 103.477V103.3H73.9067C74.6591 103.3 75.3996 103.3 76.1285 103.3C76.8808 103.3 77.5744 103.289 78.2092 103.265C78.8675 103.218 79.4435 103.159 79.9373 103.089C80.4545 103.018 80.8659 102.913 81.1716 102.771L81.3479 102.842L82.6175 110.354L82.4412 110.389C81.9239 109.966 81.3832 109.648 80.8189 109.437C80.2782 109.202 79.6904 109.037 79.0556 108.943C78.4443 108.826 77.7978 108.755 77.1159 108.732C76.4341 108.708 75.7053 108.696 74.9294 108.696H69.9216V113.281H73.942C75.094 113.281 76.1402 113.222 77.0807 113.105C78.0211 112.987 78.75 112.705 79.2672 112.258L79.4435 112.329V119.488L79.2672 119.558C78.75 119.112 78.221 118.771 77.6802 118.536C77.1395 118.3 76.5634 118.136 75.9522 118.042C75.3644 117.924 74.7296 117.854 74.0478 117.83C73.3895 117.807 72.6724 117.795 71.8965 117.795H69.9216V122.591H75.4584C76.2343 122.591 76.9631 122.591 77.6449 122.591C78.3268 122.568 78.9733 122.509 79.5846 122.415C80.2194 122.297 80.8072 122.121 81.3479 121.886C81.9122 121.651 82.4529 121.322 82.9702 120.898L83.1465 120.934L81.8769 128.445L81.7006 128.516C81.3949 128.375 80.9835 128.269 80.4663 128.199C79.9725 128.128 79.3965 128.069 78.7382 128.022C78.1034 127.999 77.4098 127.987 76.6575 127.987C75.9286 127.987 75.188 127.987 74.4357 127.987H62.1982Z" fill="black"/>
<path d="M51.2533 102.913C52.5229 102.913 53.5221 103.007 54.251 103.195C55.0033 103.383 55.5558 103.477 55.9085 103.477C56.2612 103.477 56.6021 103.465 56.9312 103.442C57.2839 103.418 57.5895 103.324 57.8481 103.16L58.0245 103.23C58.142 104.617 58.2243 106.005 58.2713 107.392C58.3419 108.755 58.4359 110.131 58.5535 111.518L58.3771 111.588C57.4837 110.46 56.4022 109.625 55.1326 109.085C53.863 108.52 52.5699 108.238 51.2533 108.238C50.3364 108.238 49.443 108.391 48.5731 108.697C47.7267 108.979 46.9743 109.425 46.316 110.037C45.6577 110.624 45.1287 111.389 44.729 112.329C44.3293 113.269 44.1295 114.374 44.1295 115.644C44.1295 116.914 44.3293 118.019 44.729 118.959C45.1287 119.876 45.6577 120.64 46.316 121.251C46.9743 121.863 47.7267 122.321 48.5731 122.627C49.443 122.909 50.3364 123.05 51.2533 123.05C53.3223 123.05 55.0386 122.662 56.4022 121.886C57.7894 121.087 58.8944 119.994 59.7173 118.606L59.8936 118.642L58.4829 127.317C57.3779 127.646 56.1789 127.905 54.8858 128.093C53.5927 128.281 52.3819 128.375 51.2533 128.375H50.7949C48.9845 128.375 47.28 128.128 45.6812 127.635C44.0825 127.141 42.6836 126.377 41.4845 125.342C40.2855 124.308 39.3333 123.003 38.6279 121.428C37.9226 119.829 37.5699 117.936 37.5699 115.75V115.574C37.5699 113.387 37.9226 111.494 38.6279 109.896C39.3333 108.297 40.2855 106.98 41.4845 105.946C42.6836 104.911 44.0825 104.147 45.6812 103.653C47.28 103.16 48.9845 102.913 50.7949 102.913H51.2533Z" fill="black"/>
<path d="M35.2727 103.3V103.477C34.7084 104.064 34.3323 105.017 34.1442 106.333C33.9796 107.65 33.8973 109.154 33.8973 110.847V120.44C33.8973 122.133 33.9796 123.637 34.1442 124.954C34.3323 126.27 34.7084 127.223 35.2727 127.81V127.987H26.174V127.81C26.7382 127.223 27.1026 126.27 27.2672 124.954C27.4553 123.637 27.5493 122.133 27.5493 120.44V110.847C27.5493 109.154 27.4553 107.65 27.2672 106.333C27.1026 105.017 26.7382 104.064 26.174 103.477V103.3H35.2727Z" fill="black"/>
<path d="M10.6857 103.3C12.6136 103.3 14.3652 103.559 15.9404 104.076C17.5392 104.593 18.9146 105.369 20.0666 106.404C21.2186 107.415 22.1121 108.696 22.7469 110.248C23.3816 111.799 23.699 113.598 23.699 115.643C23.699 117.689 23.3816 119.488 22.7469 121.039C22.1121 122.591 21.2186 123.884 20.0666 124.919C18.9146 125.93 17.5392 126.694 15.9404 127.211C14.3652 127.728 12.6136 127.987 10.6857 127.987H0V127.81C0.564263 127.223 0.928683 126.27 1.09326 124.954C1.28135 123.637 1.37539 122.133 1.37539 120.44V110.847C1.37539 109.154 1.28135 107.65 1.09326 106.333C0.928683 105.017 0.564263 104.064 0 103.477V103.3H10.6857ZM10.1215 122.767C12.308 122.767 14.0243 122.168 15.2704 120.969C16.5164 119.746 17.1395 117.971 17.1395 115.643C17.1395 113.316 16.5164 111.553 15.2704 110.354C14.0243 109.131 12.308 108.52 10.1215 108.52C9.7688 108.52 9.35736 108.531 8.88714 108.555C8.41692 108.555 8.02899 108.578 7.72335 108.625V122.662C8.0525 122.709 8.44043 122.744 8.88714 122.767C9.35736 122.767 9.7688 122.767 10.1215 122.767Z" fill="black"/>
<path d="M81.348 90H7.92154C3.61969 90 0.134766 86.4726 0.134766 82.1257V7.87427C0.134766 3.52408 3.62293 0 7.92154 0H81.348C85.6498 0 89.1348 3.52736 89.1348 7.87427V82.1257C89.1348 86.4759 85.6466 90 81.348 90Z" fill="#EE0230"/>
<path d="M269.26 90H195.009C190.659 90 187.135 86.4726 187.135 82.1257V7.87427C187.135 3.52408 190.662 0 195.009 0H269.26C273.611 0 277.135 3.52736 277.135 7.87427V82.1257C277.135 86.4759 273.607 90 269.26 90Z" fill="#EE0230"/>
<path d="M176.26 90H102.009C97.6588 90 94.1348 86.4726 94.1348 82.1257V7.87428C94.1348 3.52409 97.6621 0 102.009 0H176.26C180.611 0 184.135 3.52737 184.135 7.87428V82.1257C184.135 86.4759 180.607 90 176.26 90ZM139.135 34.772C133.486 34.772 128.907 39.3517 128.907 45C128.907 50.6484 133.486 55.228 139.135 55.228C144.783 55.228 149.363 50.6484 149.363 45C149.363 39.3517 144.783 34.772 139.135 34.772Z" fill="#190212"/>
<path d="M43.0723 22C46.4889 22 49.5931 22.4714 52.3848 23.4143C55.2181 24.3571 57.6556 25.7714 59.6973 27.6571C61.7389 29.5 63.3223 31.8357 64.4473 34.6643C65.5723 37.4929 66.1348 40.7714 66.1348 44.5C66.1348 48.2286 65.5723 51.5071 64.4473 54.3357C63.3223 57.1643 61.7389 59.5214 59.6973 61.4071C57.6556 63.25 55.2181 64.6429 52.3848 65.5857C49.5931 66.5286 46.4889 67 43.0723 67H24.1348V66.6786C25.1348 65.6071 25.7806 63.8714 26.0723 61.4714C26.4056 59.0714 26.5723 56.3286 26.5723 53.2429V35.7571C26.5723 32.6714 26.4056 29.9286 26.0723 27.5286C25.7806 25.1286 25.1348 23.3929 24.1348 22.3214V22H43.0723ZM42.0723 57.4857C45.9473 57.4857 48.9889 56.3929 51.1973 54.2071C53.4056 51.9786 54.5098 48.7429 54.5098 44.5C54.5098 40.2571 53.4056 37.0429 51.1973 34.8571C48.9889 32.6286 45.9473 31.5143 42.0723 31.5143C41.4473 31.5143 40.7181 31.5357 39.8848 31.5786C39.0514 31.5786 38.3639 31.6214 37.8223 31.7071V57.2929C38.4056 57.3786 39.0931 57.4429 39.8848 57.4857C40.7181 57.4857 41.4473 57.4857 42.0723 57.4857Z" fill="#F5F5F5"/>
<path d="M229.557 22C233.396 22 236.699 22.3966 239.467 23.1899C242.279 23.9831 244.578 25.0849 246.363 26.4951C248.149 27.9053 249.466 29.602 250.314 31.5851C251.162 33.5241 251.586 35.6395 251.586 37.9311C251.586 41.6329 250.783 44.6076 249.176 46.8551C247.613 49.1027 245.56 50.8434 243.015 52.0774L243.752 53.2672C244.734 54.8097 245.694 56.308 246.631 57.7623C247.613 59.1725 248.573 60.4726 249.51 61.6624C250.448 62.8083 251.385 63.7778 252.323 64.571C253.26 65.3643 254.197 65.849 255.135 66.0253V66.3558C254.108 67.2372 252.903 67.8983 251.519 68.339C250.135 68.7797 248.729 69 247.301 69C245.738 69 244.31 68.8678 243.015 68.6034C241.766 68.339 240.583 67.8983 239.467 67.2813C238.351 66.6203 237.302 65.7609 236.32 64.7032C235.338 63.6456 234.356 62.3235 233.373 60.737L229.825 55.1842C228.798 55.2724 227.794 55.3385 226.812 55.3826C225.83 55.4266 224.825 55.4707 223.799 55.5148C223.843 58.3793 224.022 60.9133 224.334 63.1167C224.691 65.3202 225.383 66.9287 226.41 67.9423V68.2729H209.135V67.9423C210.206 66.8406 210.898 65.0558 211.21 62.5879C211.568 60.12 211.746 57.2996 211.746 54.1266V36.1463C211.746 32.9733 211.568 30.1528 211.21 27.685C210.898 25.2171 210.206 23.4323 209.135 22.3305V22H229.557ZM223.799 46.8551C225.629 46.8111 227.459 46.6789 229.289 46.4585C231.119 46.1941 232.749 45.7534 234.177 45.1364C235.65 44.5195 236.833 43.6821 237.726 42.6245C238.619 41.5668 239.065 40.1786 239.065 38.4599C239.065 36.2564 238.15 34.6038 236.32 33.5021C234.489 32.3563 231.9 31.7834 228.553 31.7834H223.799V46.8551Z" fill="#F5F5F5"/>
</svg>
